<svg viewBox="47.413 398.235 992.597 197.409" xmlns="http://www.w3.org/2000/svg" xml:space="preserve">
  <g transform="matrix(.6267 0 0 .6267 856.315 398.235)">
    <linearGradient id="a" gradientUnits="userSpaceOnUse" x1="0" y1="401.5" x2="298.88" y2="401.5" gradientTransform="translate(0 -244)">
      <stop offset="0" style="stop-color:#3005fa"/>
      <stop offset="1" style="stop-color:#ff12fb"/>
    </linearGradient>
    <path d="m280.091 168.243.056-.11c16.269-32.6 17.266-64.344 2.81-89.383-12.878-22.307-36.505-36.643-67.22-41.071C196.545 13.293 172.318 0 146.56 0c-22.325 0-43.5 9.987-61.246 28.524-25.581 2.037-46.7 12.135-60.81 29.434-18.272 22.406-22.362 53.9-11.514 88.683l.038.117-.056.109c-16.269 32.6-17.266 64.344-2.81 89.383 12.878 22.307 36.505 36.643 67.22 41.072C96.573 301.707 120.8 315 146.558 315c22.33 0 43.51-9.991 61.258-28.537 25.57-2.04 46.692-12.125 60.798-29.421 18.272-22.406 22.362-53.9 11.514-88.683l-.038-.116zm-8.215-83.096c10.63 18.415 11.17 41.542 1.764 66.066-3.722-8.378-8.214-16.645-13.41-24.706l-4.664 17.043c4.347 7.813 7.93 15.683 10.712 23.486-4.382 8.02-9.65 15.83-15.704 23.334a234.036 234.036 0 0 0 2.32-32.87c0-29.667-5.498-60.093-17.723-87.339a165.166 165.166 0 0 0-9.039-17.369c20.74 5.428 36.61 16.537 45.744 32.355zM53.02 157.501c0-17.799 2.093-34.853 5.91-50.616 11.893-11.333 25.657-21.616 40.86-30.394 17.889-10.327 36.585-17.877 55.096-22.429 17.25 7.344 34.54 17.694 50.793 30.95 11.447 9.334 21.586 19.463 30.308 30.023 2.671 13.434 4.113 27.694 4.113 42.466 0 17.797-2.093 34.852-5.91 50.614-11.892 11.333-25.657 21.616-40.86 30.394-17.882 10.323-36.572 17.89-55.077 22.442-17.256-7.344-34.552-17.701-50.811-30.962h-.001c-11.447-9.335-21.586-19.464-30.308-30.024-2.671-13.434-4.113-27.693-4.113-42.464zM197.541 36.237c-8.421-.146-17.036.395-25.748 1.581l10.61 11.707c4.158-.337 8.283-.52 12.357-.52 2.895 0 5.766.086 8.608.258 1.872.115 3.715.27 5.533.457 7.944 11.006 14.67 24.073 19.818 38.658a237.463 237.463 0 0 0-33.512-26.975c-6.352-4.22-12.94-7.998-19.602-11.703-4.813-2.677-9.903-5.002-14.989-7.11-1.814-.752-3.337-1.389-4.654-1.929-15.616-6.245-31.442-10.27-46.904-11.819-1.61-.16-3.204-.284-4.789-.39 12.708-10.007 27.08-15.656 42.29-15.656 18.793 0 36.306 8.625 50.982 23.44zM34.419 66.045C44.03 54.26 57.49 46.7 73.274 43.175a146.67 146.67 0 0 0-2.718 3.95C62.995 58.559 56.764 71.44 51.944 85.333l15.794-5.676c6.224-15.028 14.196-28.162 23.464-38.723 1.358-.05 2.721-.085 4.1-.085 12.38 0 25.591 1.991 39.093 5.892-13.876 4.718-27.666 10.97-41.004 18.671-9.018 5.206-17.603 11.05-25.917 17.314-6.014 4.53-12.037 9.28-17.314 14.67l-2.674 2.63-.05.197c-9.785 9.665-18.321 20.027-25.381 30.852-5.175-24.85-1.532-47.99 12.364-65.029zM21.24 229.853c-10.63-18.414-11.169-41.541-1.763-66.066 4.176 9.401 9.323 18.662 15.345 27.648l4.072-17.62c-4.955-8.587-8.991-17.26-12.054-25.85 4.381-8.02 9.65-15.832 15.703-23.335a234.059 234.059 0 0 0-2.32 32.87c0 7.744.36 15.566 1.077 23.275 2.623 28.204 11.005 56.968 25.685 81.433-20.74-5.428-36.61-16.536-45.745-32.355zm74.32 48.895c.92.016 1.835.04 2.758.04 7.973 0 16.11-.612 24.329-1.792l-10.784-11.604c-7.509.663-14.904.784-22.114.345a131.795 131.795 0 0 1-5.533-.456c-7.944-11.007-14.67-24.074-19.818-38.66a237.336 237.336 0 0 0 14.955 13.285h-.001c11.924 9.724 24.525 18.094 37.456 24.966a2.332 2.332 0 0 1-.063.007c5.323 2.778 11.924 6.012 18.265 8.547 2.225.89 4.007 1.61 5.468 2.207 14.534 5.509 29.215 9.086 43.58 10.525 1.611.161 3.205.284 4.79.39-12.708 10.007-27.08 15.656-42.29 15.656-18.8 0-36.319-8.631-50.998-23.456zM258.7 248.955c-9.613 11.786-23.074 19.353-38.86 22.878.92-1.296 1.83-2.609 2.723-3.959 7.312-11.055 13.395-23.457 18.147-36.826l-15.804 5.415c-6.153 14.562-13.954 27.31-22.992 37.608-13.558.49-28.211-1.477-43.229-5.82 13.889-4.72 27.693-10.954 41.043-18.662a234.104 234.104 0 0 0 27.315-18.427l-.037.094c4.544-3.634 9.85-8.106 14.488-12.62 3.796-3.694 6.033-5.82 7.34-7.04 8.475-8.746 15.94-18.023 22.23-27.67 5.175 24.85 1.532 47.99-12.364 65.029zM151.86 99.707l2.035 43.148a4.806 4.806 0 0 0 4.737 4.579l30.688.403c3.788.05 6.032 4.26 3.96 7.432l-40.75 62.428c-2.613 4.002-8.83 2.152-8.83-2.627v-42.65a4.806 4.806 0 0 0-4.806-4.806h-32.703c-3.793 0-6.095-4.184-4.056-7.383 9.135-14.33 29.406-45.999 40.952-63.002 2.594-3.82 8.555-2.136 8.773 2.478z" style="fill:url(#a)"/>
  </g>
  <path d="M69.753 523.957v-69.16h-22.34v87.86h59.62v-18.7Zm70.29 18.7v-87.86h-22.34v87.86Zm75.94-44.68v22.72c-5.27 2.63-11.05 4.26-15.57 4.26-14.56 0-25.73-11.29-25.73-26.23 0-14.68 11.05-25.98 25.48-25.98 8.16 0 17.07 3.64 23.48 9.54l12.55-15.19c-9.04-8.03-22.85-13.05-35.9-13.05-27.74 0-48.45 19.2-48.45 44.68 0 25.61 20.21 44.94 46.94 44.94 12.3 0 27.11-4.77 36.53-11.43v-34.26Zm115.98 44.68v-87.86h-22.34v36.15h-36.4v-36.15h-22.35v87.86h22.35v-34.14h36.4v34.14Zm84.72-69.91v-18.08h-75.06v18.08h26.24v69.91h22.34v-69.91Zm46.19-18.7c-26.73 0-46.94 19.07-46.94 44.43 0 25.73 19.71 45.19 46.19 45.19 12.93 0 26.86-6.4 36.28-16.07l-13.06-13.81c-6.15 6.28-14.68 10.3-22.09 10.3-13.93 0-24.48-11.18-24.48-25.86 0-14.44 10.55-25.48 24.48-25.48 7.78 0 16.32 4.39 22.09 11.42l12.93-15.31c-8.79-9.04-22.34-14.81-35.4-14.81Zm126.78 88.61v-87.86h-22.34v36.15h-36.4v-36.15h-22.35v87.86h22.35v-34.14h36.4v34.14Zm75.94-16.19 6.27 16.19h23.85l-37.03-87.86h-22.97l-37.9 87.86h22.97l6.4-16.19Zm-6.53-16.94h-25.35l12.8-32.51Zm67.15 33.13v-87.86h-22.34v87.86Zm98.66 0v-87.86h-20.84v54.22l-40.54-54.22h-19.7v87.86h20.96v-54.1l40.41 54.1Z" fill="rgba(243, 243, 243, 1)"/>
</svg>
