<svg viewBox="0 0 40 40" fill="none" xmlns="http://www.w3.org/2000/svg">
  <circle cx="20" cy="20" r="19.5" fill="#14152C" stroke="url(#a)"/>
  <mask id="c" style="mask-type:alpha" maskUnits="userSpaceOnUse" x="0" y="0" width="40" height="40">
    <circle cx="20" cy="20" r="19.5" fill="#14152C" stroke="url(#b)"/>
  </mask>
  <g mask="url(#c)">
    <path d="m30.022 20.819.005-.009c1.22-2.484 1.295-4.902.21-6.81-.966-1.7-2.74-2.792-5.045-3.13C23.752 9.014 21.933 8 20 8c-1.676 0-3.265.76-4.597 2.173-1.92.155-3.505.925-4.564 2.243-1.371 1.707-1.678 4.107-.864 6.757l.003.009-.005.008c-1.22 2.484-1.295 4.902-.21 6.81.966 1.7 2.74 2.792 5.045 3.13C16.248 30.986 18.067 32 20 32c1.676 0 3.266-.761 4.598-2.174 1.919-.156 3.504-.924 4.563-2.242 1.371-1.707 1.678-4.107.864-6.757l-.003-.009Zm-.616-6.332c.798 1.403.838 3.165.132 5.034a13.953 13.953 0 0 0-1.006-1.882l-.35 1.298c.326.595.595 1.195.803 1.79a12.03 12.03 0 0 1-1.178 1.777c.114-.814.174-1.652.174-2.504 0-2.26-.413-4.579-1.33-6.654-.2-.454-.426-.897-.679-1.324 1.557.414 2.748 1.26 3.434 2.465ZM12.979 20c0-1.356.157-2.655.444-3.856a16.19 16.19 0 0 1 3.067-2.316 15.79 15.79 0 0 1 4.135-1.709 15.926 15.926 0 0 1 3.812 2.358 16.43 16.43 0 0 1 2.275 2.288c.2 1.023.309 2.11.309 3.235a16.66 16.66 0 0 1-.444 3.856 16.19 16.19 0 0 1-3.067 2.316 15.798 15.798 0 0 1-4.134 1.71 15.922 15.922 0 0 1-3.813-2.359 16.498 16.498 0 0 1-2.275-2.288c-.2-1.023-.309-2.11-.309-3.235Zm10.847-9.24a12.52 12.52 0 0 0-1.932.121l.796.892a11.31 11.31 0 0 1 1.574-.02c.14.01.279.02.415.035.596.839 1.101 1.834 1.488 2.946a17.894 17.894 0 0 0-2.516-2.056 21.69 21.69 0 0 0-1.47-.891 10.818 10.818 0 0 0-1.126-.542l-.35-.147a12.862 12.862 0 0 0-3.52-.9 11.04 11.04 0 0 0-.36-.03c.955-.763 2.033-1.193 3.175-1.193 1.41 0 2.725.657 3.826 1.786Zm-12.243 2.272c.722-.898 1.732-1.474 2.917-1.742-.07.098-.137.198-.204.3a13.086 13.086 0 0 0-1.397 2.912l1.185-.433c.467-1.145 1.066-2.146 1.761-2.95.102-.004.204-.007.308-.007.93 0 1.92.152 2.934.45a17.197 17.197 0 0 0-3.078 1.422c-.676.396-1.32.842-1.945 1.319-.451.345-.903.707-1.3 1.117l-.2.201-.004.015a14.27 14.27 0 0 0-1.905 2.35c-.388-1.893-.115-3.656.928-4.954Zm-.989 12.48c-.798-1.402-.838-3.164-.132-5.033.313.716.7 1.422 1.152 2.107l.305-1.343a12.147 12.147 0 0 1-.905-1.97 12.03 12.03 0 0 1 1.18-1.777A18.1 18.1 0 0 0 12.018 20c0 .59.027 1.186.08 1.773.198 2.15.827 4.34 1.929 6.205-1.557-.414-2.748-1.26-3.434-2.465Zm5.578 3.726.207.003c.599 0 1.21-.047 1.826-.137l-.809-.884a11.01 11.01 0 0 1-2.075-.008c-.596-.839-1.101-1.834-1.488-2.946.357.35.731.688 1.123 1.013.895.74 1.84 1.378 2.811 1.902h-.005c.4.212.895.458 1.371.651l.41.169c1.091.42 2.193.692 3.272.801.12.013.24.022.36.03-.955.763-2.033 1.193-3.175 1.193-1.411 0-2.726-.657-3.828-1.787Zm12.245-2.27c-.722.898-1.732 1.474-2.917 1.743.07-.099.137-.199.204-.301a13.023 13.023 0 0 0 1.362-2.806l-1.186.412c-.461 1.11-1.047 2.081-1.725 2.866-1.018.037-2.118-.113-3.245-.444a17.544 17.544 0 0 0 5.13-2.826l-.002.008c.34-.277.74-.618 1.087-.962.285-.281.453-.444.551-.536a14.117 14.117 0 0 0 1.669-2.108c.388 1.893.115 3.656-.928 4.954Zm-8.02-11.371.154 3.287a.363.363 0 0 0 .355.349l2.303.03a.366.366 0 0 1 .298.567l-3.059 4.757c-.196.304-.663.163-.663-.2v-3.25a.363.363 0 0 0-.36-.366H16.97a.366.366 0 0 1-.304-.563c.685-1.092 2.207-3.505 3.073-4.8.195-.291.642-.163.659.189Z" fill="#7376AA"/>
    <g filter="url(#d)">
      <circle cx="24.5" cy="37.5" r="12.5" fill="url(#e)"/>
    </g>
  </g>
  <defs>
    <linearGradient id="a" x1="21.304" y1="43.044" x2="21.304" y2="24.783" gradientUnits="userSpaceOnUse">
      <stop stop-color="#9382FF"/>
      <stop offset="1" stop-color="#584E99" stop-opacity="0"/>
    </linearGradient>
    <linearGradient id="b" x1="33.044" y1="4.783" x2="16.087" y2="34.783" gradientUnits="userSpaceOnUse">
      <stop stop-color="#9382FF"/>
      <stop offset="1" stop-color="#584E99" stop-opacity="0"/>
    </linearGradient>
    <linearGradient id="e" x1="9.788" y1="22.898" x2="38.438" y2="54.203" gradientUnits="userSpaceOnUse">
      <stop stop-color="#7064E9"/>
      <stop offset="1" stop-color="#DD00AC"/>
    </linearGradient>
    <filter id="d" x="-20" y="-7" width="89" height="89" filterUnits="userSpaceOnUse" color-interpolation-filters="sRGB">
      <feFlood flood-opacity="0" result="BackgroundImageFix"/>
      <feBlend in="SourceGraphic" in2="BackgroundImageFix" result="shape"/>
      <feGaussianBlur stdDeviation="16" result="effect1_foregroundBlur_572_38251"/>
    </filter>
  </defs>
</svg>
