<svg viewBox="0 0 1200 61" fill="none" xmlns="http://www.w3.org/2000/svg">
  <path fill="url(#a)" fill-opacity=".25" d="M0 0h1200v61H0z"/>
  <mask id="c" style="mask-type:alpha" maskUnits="userSpaceOnUse" x="0" y="0" width="1200" height="61">
    <path fill="#D9D9D9" d="M0 0h1200v61H0z"/>
  </mask>
  <g filter="url(#b)" mask="url(#c)">
    <path d="M-12 532c0-284.427 230.573-515 515-515h193c284.427 0 515 230.573 515 515H-12Z" fill="url(#d)" fill-opacity=".5"/>
  </g>
  <path fill-rule="evenodd" clip-rule="evenodd" d="M840.25 39.333A29.208 29.208 0 0 0 817.96 29H380.417a25.833 25.833 0 0 0-20.667 10.333 25.833 25.833 0 0 1-20.667 10.334H5.167a5.167 5.167 0 0 0 0 10.333H1194.83c2.86 0 5.17-2.313 5.17-5.167a5.165 5.165 0 0 0-5.17-5.166H862.54c-8.588 0-16.74-3.78-22.29-10.334Z" fill="url(#e)" fill-opacity=".8"/>
  <path fill-rule="evenodd" clip-rule="evenodd" d="M840.25 41a29.283 29.283 0 0 0-22.038-10h-438.06a25.812 25.812 0 0 0-20.402 10 25.812 25.812 0 0 1-20.402 10H0v10h1200V51H862.288a29.283 29.283 0 0 1-22.038-10Z" fill="#070711"/>
  <defs>
    <linearGradient id="a" x1="600" y1="0" x2="600" y2="61" gradientUnits="userSpaceOnUse">
      <stop stop-color="#DD00AC" stop-opacity="0"/>
      <stop offset="1" stop-color="#DD00AC" stop-opacity=".15"/>
    </linearGradient>
    <linearGradient id="d" x1="600.697" y1="17" x2="574.576" y2="530.733" gradientUnits="userSpaceOnUse">
      <stop stop-color="#D601AB" stop-opacity=".06"/>
      <stop offset="1" stop-color="#D601AB"/>
    </linearGradient>
    <linearGradient id="e" x1="0" y1="60.001" x2="1200" y2="60.001" gradientUnits="userSpaceOnUse">
      <stop stop-color="#432372" stop-opacity="0"/>
      <stop offset=".339" stop-color="#410093" stop-opacity=".698"/>
      <stop offset=".5" stop-color="#DD00AC" stop-opacity=".6"/>
      <stop offset=".667" stop-color="#410093" stop-opacity=".76"/>
      <stop offset="1" stop-color="#432372" stop-opacity="0"/>
    </linearGradient>
    <filter id="b" x="-36.5" y="-7.5" width="1272" height="564" filterUnits="userSpaceOnUse" color-interpolation-filters="sRGB">
      <feFlood flood-opacity="0" result="BackgroundImageFix"/>
      <feBlend in="SourceGraphic" in2="BackgroundImageFix" result="shape"/>
      <feGaussianBlur stdDeviation="12.25" result="effect1_foregroundBlur_6_128"/>
    </filter>
  </defs>
</svg>
