<svg viewBox="0 0 1920 98" fill="none" xmlns="http://www.w3.org/2000/svg">
  <path fill="url(#a)" fill-opacity=".25" d="M0 0h1920v97.6H0z"/>
  <mask id="c" style="mask-type:alpha" maskUnits="userSpaceOnUse" x="0" y="0" width="1920" height="98">
    <path fill="#D9D9D9" d="M0 0h1920v97.6H0z"/>
  </mask>
  <g filter="url(#b)" mask="url(#c)">
    <path d="M-19.2 851.2c0-455.083 368.918-824 824-824h308.8c455.08 0 824 368.917 824 824H-19.2Z" fill="url(#d)" fill-opacity=".5"/>
  </g>
  <path fill-rule="evenodd" clip-rule="evenodd" d="M1343.88 62.32a44.997 44.997 0 0 0-34.34-15.92H608.666a41.334 41.334 0 0 0-33.067 16.533 41.333 41.333 0 0 1-33.066 16.534H8.267a8.267 8.267 0 1 0 0 16.533H1911.73a8.267 8.267 0 1 0 0-16.534h-532.47a44.998 44.998 0 0 1-34.34-15.92l-1.04-1.226Z" fill="url(#e)" fill-opacity=".8"/>
  <path fill-rule="evenodd" clip-rule="evenodd" d="M1343.85 64.967a45.01 45.01 0 0 0-33.87-15.367H608.242a41.298 41.298 0 0 0-32.643 16 41.297 41.297 0 0 1-32.642 16H0v16h1920v-16h-541.18a45.01 45.01 0 0 1-33.87-15.367l-1.1-1.266Z" fill="#070711"/>
  <defs>
    <linearGradient id="a" x1="960" y1="0" x2="960" y2="97.6" gradientUnits="userSpaceOnUse">
      <stop stop-color="#DD00AC" stop-opacity="0"/>
      <stop offset="1" stop-color="#DD00AC" stop-opacity=".15"/>
    </linearGradient>
    <linearGradient id="d" x1="961.115" y1="27.2" x2="919.321" y2="849.172" gradientUnits="userSpaceOnUse">
      <stop stop-color="#D601AB" stop-opacity=".06"/>
      <stop offset="1" stop-color="#D601AB"/>
    </linearGradient>
    <linearGradient id="e" x1="0" y1="96.001" x2="1920" y2="96.001" gradientUnits="userSpaceOnUse">
      <stop stop-color="#432372" stop-opacity="0"/>
      <stop offset=".339" stop-color="#410093" stop-opacity=".698"/>
      <stop offset=".5" stop-color="#DD00AC" stop-opacity=".6"/>
      <stop offset=".667" stop-color="#410093" stop-opacity=".76"/>
      <stop offset="1" stop-color="#432372" stop-opacity="0"/>
    </linearGradient>
    <filter id="b" x="-43.7" y="2.7" width="2005.8" height="873" filterUnits="userSpaceOnUse" color-interpolation-filters="sRGB">
      <feFlood flood-opacity="0" result="BackgroundImageFix"/>
      <feBlend in="SourceGraphic" in2="BackgroundImageFix" result="shape"/>
      <feGaussianBlur stdDeviation="12.25" result="effect1_foregroundBlur_233_82612"/>
    </filter>
  </defs>
</svg>
